<svg xmlns="http://www.w3.org/2000/svg" xmlns:xlink="http://www.w3.org/1999/xlink" width="1960" zoomAndPan="magnify" viewBox="0 0 1470 461.999983" height="616" preserveAspectRatio="xMidYMid meet" version="1.0"><defs><g/><clipPath id="8da16c5168"><rect x="0" width="643" y="0" height="241"/></clipPath><clipPath id="ff3b6ba7b0"><rect x="0" width="691" y="0" height="302"/></clipPath></defs><g transform="matrix(1, 0, 0, 1, 78, 110)"><g clip-path="url(#8da16c5168)"><g fill="#d81056" fill-opacity="1"><g transform="translate(2.776895, 171.879978)"><g><path d="M 77.765625 -109.6875 C 84.484375 -109.6875 90.117188 -108.003906 94.671875 -104.640625 C 99.234375 -101.273438 101.515625 -96.957031 101.515625 -91.6875 C 101.515625 -86.5625 99.113281 -80.71875 94.3125 -74.15625 C 89.519531 -67.59375 81.722656 -61.789062 70.921875 -56.75 C 60.117188 -51.71875 46.398438 -48.960938 29.765625 -48.484375 C 28.796875 -45.285156 28.3125 -41.363281 28.3125 -36.71875 C 28.3125 -26.957031 30.953125 -19.875 36.234375 -15.46875 C 41.515625 -11.070312 47.359375 -8.875 53.765625 -8.875 C 64.484375 -8.875 75.363281 -14.234375 86.40625 -24.953125 L 89.515625 -22.078125 C 72.398438 -5.441406 55.84375 2.875 39.84375 2.875 C 33.28125 2.875 27.554688 1.238281 22.671875 -2.03125 C 17.796875 -5.3125 14.117188 -9.59375 11.640625 -14.875 C 9.160156 -20.15625 7.921875 -25.597656 7.921875 -31.203125 C 7.921875 -42.398438 11.160156 -54.15625 17.640625 -66.46875 C 24.117188 -78.789062 32.757812 -89.070312 43.5625 -97.3125 C 54.363281 -105.5625 65.765625 -109.6875 77.765625 -109.6875 Z M 31.203125 -53.046875 C 42.078125 -53.835938 50.875 -55.675781 57.59375 -58.5625 C 64.15625 -61.4375 69.476562 -65.15625 73.5625 -69.71875 C 77.644531 -74.28125 80.5625 -78.757812 82.3125 -83.15625 C 84.070312 -87.5625 84.953125 -91.203125 84.953125 -94.078125 C 84.953125 -96.796875 83.953125 -99.316406 81.953125 -101.640625 C 79.953125 -103.960938 77.113281 -105.125 73.4375 -105.125 C 67.039062 -105.125 60.84375 -102.160156 54.84375 -96.234375 C 48.84375 -90.316406 43.722656 -83.273438 39.484375 -75.109375 C 35.242188 -66.953125 32.484375 -59.597656 31.203125 -53.046875 Z M 31.203125 -53.046875 "/></g></g></g><g fill="#d81056" fill-opacity="1"><g transform="translate(91.096804, 171.879978)"><g><path d="M 56.640625 -109.6875 C 62.398438 -109.6875 67.835938 -108.320312 72.953125 -105.59375 C 75.835938 -104.320312 77.835938 -103.6875 78.953125 -103.6875 C 81.992188 -103.6875 84.476562 -105.6875 86.40625 -109.6875 L 90.71875 -109.6875 L 84.234375 -73.203125 L 79.921875 -73.203125 C 79.921875 -83.597656 77.878906 -91.4375 73.796875 -96.71875 C 69.722656 -102 64.722656 -104.640625 58.796875 -104.640625 C 54.472656 -104.640625 50.910156 -103.28125 48.109375 -100.5625 C 45.316406 -97.84375 43.921875 -94.800781 43.921875 -91.4375 C 43.921875 -87.601562 45.039062 -83.722656 47.28125 -79.796875 C 49.519531 -75.878906 53.039062 -70.71875 57.84375 -64.3125 C 63.28125 -57.28125 67.4375 -51.125 70.3125 -45.84375 C 73.195312 -40.5625 74.640625 -35.039062 74.640625 -29.28125 C 74.640625 -23.84375 73.160156 -18.679688 70.203125 -13.796875 C 67.242188 -8.921875 63.039062 -4.921875 57.59375 -1.796875 C 52.15625 1.316406 45.835938 2.875 38.640625 2.875 C 34.484375 2.875 29.441406 1.835938 23.515625 -0.234375 C 19.359375 -1.515625 16.640625 -2.15625 15.359375 -2.15625 C 12.316406 -2.15625 9.597656 -0.476562 7.203125 2.875 L 2.15625 2.875 L 9.125 -35.515625 L 13.921875 -35.515625 C 14.554688 -25.921875 16.515625 -17.960938 19.796875 -11.640625 C 23.078125 -5.316406 29.195312 -2.15625 38.15625 -2.15625 C 44.394531 -2.15625 49.273438 -4.273438 52.796875 -8.515625 C 56.316406 -12.753906 58.078125 -17.195312 58.078125 -21.84375 C 58.078125 -25.195312 57.113281 -28.675781 55.1875 -32.28125 C 53.269531 -35.882812 51.113281 -39.441406 48.71875 -42.953125 C 46.320312 -46.472656 44.722656 -48.796875 43.921875 -49.921875 L 40.3125 -55.203125 C 36.15625 -60.960938 33.078125 -65.921875 31.078125 -70.078125 C 29.078125 -74.234375 28.078125 -78.710938 28.078125 -83.515625 C 28.078125 -89.273438 29.597656 -94.113281 32.640625 -98.03125 C 35.679688 -101.957031 39.441406 -104.878906 43.921875 -106.796875 C 48.398438 -108.722656 52.640625 -109.6875 56.640625 -109.6875 Z M 56.640625 -109.6875 "/></g></g></g><g fill="#d81056" fill-opacity="1"><g transform="translate(166.696745, 171.879978)"><g><path d="M 56.640625 -109.6875 C 62.398438 -109.6875 67.835938 -108.320312 72.953125 -105.59375 C 75.835938 -104.320312 77.835938 -103.6875 78.953125 -103.6875 C 81.992188 -103.6875 84.476562 -105.6875 86.40625 -109.6875 L 90.71875 -109.6875 L 84.234375 -73.203125 L 79.921875 -73.203125 C 79.921875 -83.597656 77.878906 -91.4375 73.796875 -96.71875 C 69.722656 -102 64.722656 -104.640625 58.796875 -104.640625 C 54.472656 -104.640625 50.910156 -103.28125 48.109375 -100.5625 C 45.316406 -97.84375 43.921875 -94.800781 43.921875 -91.4375 C 43.921875 -87.601562 45.039062 -83.722656 47.28125 -79.796875 C 49.519531 -75.878906 53.039062 -70.71875 57.84375 -64.3125 C 63.28125 -57.28125 67.4375 -51.125 70.3125 -45.84375 C 73.195312 -40.5625 74.640625 -35.039062 74.640625 -29.28125 C 74.640625 -23.84375 73.160156 -18.679688 70.203125 -13.796875 C 67.242188 -8.921875 63.039062 -4.921875 57.59375 -1.796875 C 52.15625 1.316406 45.835938 2.875 38.640625 2.875 C 34.484375 2.875 29.441406 1.835938 23.515625 -0.234375 C 19.359375 -1.515625 16.640625 -2.15625 15.359375 -2.15625 C 12.316406 -2.15625 9.597656 -0.476562 7.203125 2.875 L 2.15625 2.875 L 9.125 -35.515625 L 13.921875 -35.515625 C 14.554688 -25.921875 16.515625 -17.960938 19.796875 -11.640625 C 23.078125 -5.316406 29.195312 -2.15625 38.15625 -2.15625 C 44.394531 -2.15625 49.273438 -4.273438 52.796875 -8.515625 C 56.316406 -12.753906 58.078125 -17.195312 58.078125 -21.84375 C 58.078125 -25.195312 57.113281 -28.675781 55.1875 -32.28125 C 53.269531 -35.882812 51.113281 -39.441406 48.71875 -42.953125 C 46.320312 -46.472656 44.722656 -48.796875 43.921875 -49.921875 L 40.3125 -55.203125 C 36.15625 -60.960938 33.078125 -65.921875 31.078125 -70.078125 C 29.078125 -74.234375 28.078125 -78.710938 28.078125 -83.515625 C 28.078125 -89.273438 29.597656 -94.113281 32.640625 -98.03125 C 35.679688 -101.957031 39.441406 -104.878906 43.921875 -106.796875 C 48.398438 -108.722656 52.640625 -109.6875 56.640625 -109.6875 Z M 56.640625 -109.6875 "/></g></g></g><g fill="#d81056" fill-opacity="1"><g transform="translate(242.296685, 171.879978)"><g><path d="M 77.765625 -109.6875 C 84.484375 -109.6875 90.117188 -108.003906 94.671875 -104.640625 C 99.234375 -101.273438 101.515625 -96.957031 101.515625 -91.6875 C 101.515625 -86.5625 99.113281 -80.71875 94.3125 -74.15625 C 89.519531 -67.59375 81.722656 -61.789062 70.921875 -56.75 C 60.117188 -51.71875 46.398438 -48.960938 29.765625 -48.484375 C 28.796875 -45.285156 28.3125 -41.363281 28.3125 -36.71875 C 28.3125 -26.957031 30.953125 -19.875 36.234375 -15.46875 C 41.515625 -11.070312 47.359375 -8.875 53.765625 -8.875 C 64.484375 -8.875 75.363281 -14.234375 86.40625 -24.953125 L 89.515625 -22.078125 C 72.398438 -5.441406 55.84375 2.875 39.84375 2.875 C 33.28125 2.875 27.554688 1.238281 22.671875 -2.03125 C 17.796875 -5.3125 14.117188 -9.59375 11.640625 -14.875 C 9.160156 -20.15625 7.921875 -25.597656 7.921875 -31.203125 C 7.921875 -42.398438 11.160156 -54.15625 17.640625 -66.46875 C 24.117188 -78.789062 32.757812 -89.070312 43.5625 -97.3125 C 54.363281 -105.5625 65.765625 -109.6875 77.765625 -109.6875 Z M 31.203125 -53.046875 C 42.078125 -53.835938 50.875 -55.675781 57.59375 -58.5625 C 64.15625 -61.4375 69.476562 -65.15625 73.5625 -69.71875 C 77.644531 -74.28125 80.5625 -78.757812 82.3125 -83.15625 C 84.070312 -87.5625 84.953125 -91.203125 84.953125 -94.078125 C 84.953125 -96.796875 83.953125 -99.316406 81.953125 -101.640625 C 79.953125 -103.960938 77.113281 -105.125 73.4375 -105.125 C 67.039062 -105.125 60.84375 -102.160156 54.84375 -96.234375 C 48.84375 -90.316406 43.722656 -83.273438 39.484375 -75.109375 C 35.242188 -66.953125 32.484375 -59.597656 31.203125 -53.046875 Z M 31.203125 -53.046875 "/></g></g></g><g fill="#d81056" fill-opacity="1"><g transform="translate(330.616594, 171.879978)"><g><path d="M 37.6875 -54 C 47.757812 -70.632812 57.914062 -84.070312 68.15625 -94.3125 C 78.394531 -104.5625 87.914062 -109.6875 96.71875 -109.6875 C 100.394531 -109.6875 103.472656 -108.441406 105.953125 -105.953125 C 108.441406 -103.472656 109.6875 -99.914062 109.6875 -95.28125 C 109.6875 -90.957031 108.5625 -84.71875 106.3125 -76.5625 L 91.203125 -24.71875 C 89.765625 -19.601562 89.046875 -16.082031 89.046875 -14.15625 C 89.046875 -12.71875 89.40625 -11.675781 90.125 -11.03125 C 90.84375 -10.394531 91.601562 -10.078125 92.40625 -10.078125 C 94.320312 -10.078125 97.28125 -12.15625 101.28125 -16.3125 C 105.28125 -20.476562 108 -23.757812 109.4375 -26.15625 L 113.046875 -23.28125 C 108.078125 -16.394531 102.515625 -10.3125 96.359375 -5.03125 C 90.203125 0.238281 84.398438 2.875 78.953125 2.875 C 76.398438 2.875 74.242188 1.875 72.484375 -0.125 C 70.722656 -2.125 69.84375 -4.800781 69.84375 -8.15625 C 69.84375 -11.675781 70.722656 -16.394531 72.484375 -22.3125 L 88.796875 -79.6875 C 88.960938 -80.164062 89.363281 -81.484375 90 -83.640625 C 90.632812 -85.796875 90.953125 -87.914062 90.953125 -90 C 90.953125 -92.082031 90.390625 -93.679688 89.265625 -94.796875 C 88.148438 -95.921875 86.957031 -96.484375 85.6875 -96.484375 C 82 -96.484375 76.675781 -93.363281 69.71875 -87.125 C 62.757812 -80.882812 56 -73.039062 49.4375 -63.59375 C 43.84375 -55.757812 39.320312 -48.519531 35.875 -41.875 C 32.4375 -35.238281 29.359375 -27.203125 26.640625 -17.765625 C 24.554688 -10.878906 22.875 -4.957031 21.59375 0 L 3.125 0 L 25.921875 -79.921875 C 26.078125 -80.398438 26.632812 -82.4375 27.59375 -86.03125 C 28.5625 -89.632812 29.046875 -92.238281 29.046875 -93.84375 C 29.046875 -95.757812 28.363281 -97.238281 27 -98.28125 C 25.632812 -99.320312 23.832031 -99.84375 21.59375 -99.84375 C 19.351562 -99.84375 16.15625 -99.679688 12 -99.359375 L 12 -103.6875 L 48.71875 -109.6875 L 53.046875 -109.6875 L 37.203125 -54.484375 Z M 37.6875 -54 "/></g></g></g><g fill="#d81056" fill-opacity="1"><g transform="translate(433.816523, 171.879978)"><g><path d="M 20.640625 -15.125 L 61.6875 -15.125 C 67.28125 -15.125 71.632812 -16.242188 74.75 -18.484375 C 77.875 -20.722656 80.640625 -24.960938 83.046875 -31.203125 L 87.84375 -31.203125 L 77.046875 0 L 1.203125 0 L 84.953125 -91.4375 L 42 -91.4375 C 37.84375 -91.4375 34.441406 -90.351562 31.796875 -88.1875 C 29.160156 -86.03125 26.722656 -82.234375 24.484375 -76.796875 L 19.6875 -76.796875 L 30 -107.046875 L 104.640625 -107.046875 Z M 20.640625 -15.125 "/></g></g></g><g fill="#d81056" fill-opacity="1"><g transform="translate(522.136432, 171.879978)"><g><path d="M 74.640625 -109.6875 C 78.960938 -109.6875 82.882812 -108.203125 86.40625 -105.234375 C 89.925781 -102.273438 92.082031 -98.15625 92.875 -92.875 L 93.359375 -92.875 L 97.203125 -107.046875 L 116.15625 -109.6875 L 91.4375 -23.046875 C 91.28125 -22.722656 90.878906 -21.519531 90.234375 -19.4375 C 89.597656 -17.351562 89.28125 -15.273438 89.28125 -13.203125 C 89.28125 -11.921875 89.597656 -10.921875 90.234375 -10.203125 C 90.878906 -9.484375 91.601562 -9.125 92.40625 -9.125 C 94.476562 -9.125 97.113281 -10.5625 100.3125 -13.4375 C 103.519531 -16.320312 106.5625 -20.320312 109.4375 -25.4375 L 113.046875 -23.046875 C 108.722656 -15.046875 103.238281 -8.722656 96.59375 -4.078125 C 89.957031 0.554688 84.078125 2.875 78.953125 2.875 C 76.078125 2.875 73.914062 1.835938 72.46875 -0.234375 C 71.03125 -2.316406 70.3125 -4.878906 70.3125 -7.921875 C 70.3125 -10.003906 70.75 -13.40625 71.625 -18.125 C 72.507812 -22.84375 73.914062 -27.601562 75.84375 -32.40625 L 75.359375 -32.875 C 57.441406 -9.039062 41.203125 2.875 26.640625 2.875 C 20.242188 2.875 15.164062 0.113281 11.40625 -5.40625 C 7.644531 -10.925781 5.765625 -17.285156 5.765625 -24.484375 C 5.765625 -36.960938 9.398438 -49.878906 16.671875 -63.234375 C 23.953125 -76.597656 32.992188 -87.679688 43.796875 -96.484375 C 54.597656 -105.285156 64.878906 -109.6875 74.640625 -109.6875 Z M 24.953125 -29.046875 C 24.953125 -22.804688 26.390625 -18.242188 29.265625 -15.359375 C 32.148438 -12.484375 35.515625 -11.046875 39.359375 -11.046875 C 44.316406 -11.046875 49.675781 -13.285156 55.4375 -17.765625 C 61.195312 -22.242188 66.515625 -27.960938 71.390625 -34.921875 C 76.273438 -41.878906 79.914062 -48.957031 82.3125 -56.15625 C 84.71875 -63.195312 86.476562 -69 87.59375 -73.5625 C 88.71875 -78.125 89.28125 -82.5625 89.28125 -86.875 C 89.28125 -93.113281 87.835938 -97.710938 84.953125 -100.671875 C 82.078125 -103.640625 78.71875 -105.125 74.875 -105.125 C 67.351562 -105.125 59.710938 -100.519531 51.953125 -91.3125 C 44.191406 -82.113281 37.75 -71.351562 32.625 -59.03125 C 27.507812 -46.71875 24.953125 -36.722656 24.953125 -29.046875 Z M 24.953125 -29.046875 "/></g></g></g></g></g><g transform="matrix(1, 0, 0, 1, 717, 60)"><g clip-path="url(#ff3b6ba7b0)"><g fill="#ffffff" fill-opacity="1"><g transform="translate(0.588779, 223.001565)"><g><path d="M 16.0625 0 L 16.0625 -108.671875 L 42.890625 -108.671875 L 42.890625 -86.453125 L 41.796875 -86.453125 C 43.703125 -91.441406 46.414062 -95.734375 49.9375 -99.328125 C 53.457031 -102.921875 57.632812 -105.742188 62.46875 -107.796875 C 67.3125 -109.847656 72.59375 -110.875 78.3125 -110.875 C 87.113281 -110.875 94.410156 -108.742188 100.203125 -104.484375 C 105.992188 -100.234375 109.988281 -94.148438 112.1875 -86.234375 L 110.4375 -86.234375 C 113.363281 -93.421875 118.125 -99.320312 124.71875 -103.9375 C 131.320312 -108.5625 139.242188 -110.875 148.484375 -110.875 C 156.703125 -110.875 163.597656 -109.222656 169.171875 -105.921875 C 174.742188 -102.617188 178.957031 -97.59375 181.8125 -90.84375 C 184.675781 -84.101562 186.109375 -75.597656 186.109375 -65.328125 L 186.109375 0 L 157.734375 0 L 157.734375 -64.234375 C 157.734375 -72.296875 156.375 -78.269531 153.65625 -82.15625 C 150.945312 -86.050781 146.21875 -88 139.46875 -88 C 134.476562 -88 130.113281 -86.820312 126.375 -84.46875 C 122.632812 -82.125 119.8125 -78.863281 117.90625 -74.6875 C 116 -70.507812 115.046875 -65.554688 115.046875 -59.828125 L 115.046875 0 L 86.890625 0 L 86.890625 -64.234375 C 86.890625 -72.296875 85.457031 -78.269531 82.59375 -82.15625 C 79.738281 -86.050781 75.085938 -88 68.640625 -88 C 63.648438 -88 59.359375 -86.785156 55.765625 -84.359375 C 52.171875 -81.941406 49.382812 -78.601562 47.40625 -74.34375 C 45.425781 -70.09375 44.4375 -65.253906 44.4375 -59.828125 L 44.4375 0 Z M 16.0625 0 "/></g></g></g><g fill="#ffffff" fill-opacity="1"><g transform="translate(184.714176, 223.001565)"><g><path d="M 66 2.203125 C 54.5625 2.203125 44.625 -0.101562 36.1875 -4.71875 C 27.75 -9.34375 21.21875 -15.90625 16.59375 -24.40625 C 11.976562 -32.914062 9.671875 -42.894531 9.671875 -54.34375 C 9.671875 -65.925781 11.976562 -75.929688 16.59375 -84.359375 C 21.21875 -92.796875 27.75 -99.320312 36.1875 -103.9375 C 44.625 -108.5625 54.5625 -110.875 66 -110.875 C 77.582031 -110.875 87.550781 -108.5625 95.90625 -103.9375 C 104.269531 -99.320312 110.757812 -92.757812 115.375 -84.25 C 120 -75.75 122.3125 -65.78125 122.3125 -54.34375 C 122.3125 -42.894531 120 -32.914062 115.375 -24.40625 C 110.757812 -15.90625 104.269531 -9.34375 95.90625 -4.71875 C 87.550781 -0.101562 77.582031 2.203125 66 2.203125 Z M 66 -20.234375 C 74.644531 -20.234375 81.460938 -23.203125 86.453125 -29.140625 C 91.441406 -35.085938 93.9375 -43.5625 93.9375 -54.5625 C 93.9375 -65.5625 91.441406 -73.957031 86.453125 -79.75 C 81.460938 -85.539062 74.644531 -88.4375 66 -88.4375 C 57.488281 -88.4375 50.703125 -85.539062 45.640625 -79.75 C 40.585938 -73.957031 38.0625 -65.5625 38.0625 -54.5625 C 38.0625 -43.5625 40.585938 -35.085938 45.640625 -29.140625 C 50.703125 -23.203125 57.488281 -20.234375 66 -20.234375 Z M 66 -20.234375 "/></g></g></g><g fill="#ffffff" fill-opacity="1"><g transform="translate(299.104638, 223.001565)"><g><path d="M 58.515625 2.203125 C 48.691406 2.203125 40.113281 -0.140625 32.78125 -4.828125 C 25.445312 -9.523438 19.757812 -16.125 15.71875 -24.625 C 11.6875 -33.132812 9.671875 -43.039062 9.671875 -54.34375 C 9.671875 -65.78125 11.6875 -75.710938 15.71875 -84.140625 C 19.757812 -92.578125 25.410156 -99.140625 32.671875 -103.828125 C 39.929688 -108.523438 48.398438 -110.875 58.078125 -110.875 C 67.023438 -110.875 74.757812 -108.742188 81.28125 -104.484375 C 87.8125 -100.234375 92.394531 -94.664062 95.03125 -87.78125 L 93.71875 -87.78125 L 93.71875 -155.09375 L 122.3125 -155.09375 L 122.3125 0 L 95.46875 0 L 95.46875 -22.65625 L 96.359375 -22.65625 C 93.566406 -14.882812 88.832031 -8.796875 82.15625 -4.390625 C 75.488281 0.00390625 67.609375 2.203125 58.515625 2.203125 Z M 66.21875 -19.578125 C 74.863281 -19.578125 81.679688 -22.582031 86.671875 -28.59375 C 91.660156 -34.613281 94.15625 -43.195312 94.15625 -54.34375 C 94.15625 -65.632812 91.660156 -74.210938 86.671875 -80.078125 C 81.679688 -85.941406 74.863281 -88.875 66.21875 -88.875 C 57.707031 -88.875 50.921875 -85.941406 45.859375 -80.078125 C 40.804688 -74.210938 38.28125 -65.632812 38.28125 -54.34375 C 38.28125 -43.195312 40.804688 -34.613281 45.859375 -28.59375 C 50.921875 -22.582031 57.707031 -19.578125 66.21875 -19.578125 Z M 66.21875 -19.578125 "/></g></g></g><g fill="#ffffff" fill-opacity="1"><g transform="translate(419.434677, 223.001565)"><g><path d="M 71.0625 2.203125 C 58.15625 2.203125 47.117188 -0.0664062 37.953125 -4.609375 C 28.785156 -9.160156 21.78125 -15.6875 16.9375 -24.1875 C 12.09375 -32.695312 9.671875 -42.75 9.671875 -54.34375 C 9.671875 -65.332031 11.976562 -75.046875 16.59375 -83.484375 C 21.21875 -91.921875 27.707031 -98.59375 36.0625 -103.5 C 44.425781 -108.414062 54.179688 -110.875 65.328125 -110.875 C 75.742188 -110.875 84.765625 -108.632812 92.390625 -104.15625 C 100.015625 -99.6875 105.914062 -93.304688 110.09375 -85.015625 C 114.28125 -76.734375 116.375 -66.875 116.375 -55.4375 L 116.375 -46.859375 L 32.5625 -46.859375 L 32.5625 -63.796875 L 96.140625 -63.796875 L 92.609375 -60.28125 C 92.609375 -70.394531 90.296875 -78.054688 85.671875 -83.265625 C 81.054688 -88.472656 74.5 -91.078125 66 -91.078125 C 59.976562 -91.078125 54.769531 -89.71875 50.375 -87 C 45.976562 -84.289062 42.566406 -80.441406 40.140625 -75.453125 C 37.722656 -70.460938 36.515625 -64.378906 36.515625 -57.203125 L 36.515625 -55 C 36.515625 -46.925781 37.832031 -40.285156 40.46875 -35.078125 C 43.113281 -29.878906 47.078125 -26.03125 52.359375 -23.53125 C 57.640625 -21.039062 64.09375 -19.796875 71.71875 -19.796875 C 77.582031 -19.796875 83.554688 -20.601562 89.640625 -22.21875 C 95.722656 -23.832031 101.257812 -26.546875 106.25 -30.359375 L 114.171875 -11 C 108.742188 -6.75 102.109375 -3.484375 94.265625 -1.203125 C 86.421875 1.066406 78.6875 2.203125 71.0625 2.203125 Z M 71.0625 2.203125 "/></g></g></g><g fill="#ffffff" fill-opacity="1"><g transform="translate(527.445609, 223.001565)"><g><path d="M 53.453125 2.203125 C 40.835938 2.203125 31.378906 -1.207031 25.078125 -8.03125 C 18.773438 -14.851562 15.625 -24.789062 15.625 -37.84375 L 15.625 -155.09375 L 44.21875 -155.09375 L 44.21875 -39.59375 C 44.21875 -35.488281 44.800781 -32.039062 45.96875 -29.25 C 47.144531 -26.46875 48.90625 -24.34375 51.25 -22.875 C 53.601562 -21.40625 56.460938 -20.671875 59.828125 -20.671875 C 61.742188 -20.671875 63.578125 -20.78125 65.328125 -21 C 67.085938 -21.226562 68.847656 -21.5625 70.609375 -22 L 71.0625 -0.21875 C 68.125 0.507812 65.257812 1.09375 62.46875 1.53125 C 59.6875 1.976562 56.679688 2.203125 53.453125 2.203125 Z M 53.453125 2.203125 "/></g></g></g><g fill="#ffffff" fill-opacity="1"><g transform="translate(582.22037, 223.001565)"><g><path d="M 56.96875 2.203125 C 50.664062 2.203125 44.582031 1.6875 38.71875 0.65625 C 32.851562 -0.363281 27.460938 -1.753906 22.546875 -3.515625 C 17.628906 -5.273438 13.335938 -7.550781 9.671875 -10.34375 L 17.15625 -29.484375 C 20.820312 -27.128906 24.851562 -25.109375 29.25 -23.421875 C 33.65625 -21.742188 38.203125 -20.5 42.890625 -19.6875 C 47.585938 -18.882812 52.132812 -18.484375 56.53125 -18.484375 C 64.15625 -18.484375 69.835938 -19.546875 73.578125 -21.671875 C 77.316406 -23.796875 79.1875 -26.835938 79.1875 -30.796875 C 79.1875 -34.171875 78.050781 -36.738281 75.78125 -38.5 C 73.507812 -40.257812 69.878906 -41.503906 64.890625 -42.234375 L 41.796875 -46.203125 C 32.117188 -47.804688 24.785156 -51.25 19.796875 -56.53125 C 14.804688 -61.8125 12.3125 -68.410156 12.3125 -76.328125 C 12.3125 -83.222656 14.21875 -89.238281 18.03125 -94.375 C 21.851562 -99.507812 27.351562 -103.539062 34.53125 -106.46875 C 41.71875 -109.40625 50.226562 -110.875 60.0625 -110.875 C 65.332031 -110.875 70.570312 -110.394531 75.78125 -109.4375 C 80.988281 -108.488281 85.828125 -107.097656 90.296875 -105.265625 C 94.773438 -103.429688 98.628906 -101.117188 101.859375 -98.328125 L 93.9375 -79.1875 C 91.144531 -81.539062 87.84375 -83.519531 84.03125 -85.125 C 80.21875 -86.738281 76.257812 -87.984375 72.15625 -88.859375 C 68.050781 -89.742188 64.09375 -90.1875 60.28125 -90.1875 C 52.65625 -90.1875 47.007812 -89.050781 43.34375 -86.78125 C 39.675781 -84.507812 37.84375 -81.394531 37.84375 -77.4375 C 37.84375 -74.207031 38.90625 -71.675781 41.03125 -69.84375 C 43.15625 -68.007812 46.488281 -66.726562 51.03125 -66 L 73.6875 -62.03125 C 84.101562 -60.269531 91.878906 -56.929688 97.015625 -52.015625 C 102.148438 -47.109375 104.71875 -40.476562 104.71875 -32.125 C 104.71875 -24.9375 102.734375 -18.773438 98.765625 -13.640625 C 94.804688 -8.503906 89.269531 -4.578125 82.15625 -1.859375 C 75.050781 0.847656 66.65625 2.203125 56.96875 2.203125 Z M 56.96875 2.203125 "/></g></g></g></g></g></svg>